PathFileType	4	(X/Y/Z)	/Users/itak/Documents/Research/Walk-IL/dataset/trc/00014_00004.trc
DataRate	CameraRate	NumFrames	NumMarkers	Units	OrigDataRate	OrigDataStartFrame	OrigNumFrames
100.000000	100.000000	4	56	mm	100.000000	204	544
Frame#	Time	LMT1			RPSI			LPSI			L3			STRN			T10			C7			CLAV			RBAK			LBAK			LSHO			LUPA			LAEL			LAOL			LWTS			LWPS			LFRA			LIFD			LHPS			RSHO			RUPA			RAEL			RAOL			RWTS			RWPS			RFRA			RIFD			RHTS			RHPS			RBHD			LFHD			RFHD			LBHD			LHIP			RHIP			RASI			LASI			LKNE			LTHI			LANK			LTIP			LTOE			LMT5			LHEE			RKNE			RANK			RTIP			RTOE			RMT1			RMT5			RHEE			LHTS			RTHI			*53			*54			*55			
		X1	Y1	Z1	X2	Y2	Z2	X3	Y3	Z3	X4	Y4	Z4	X5	Y5	Z5	X6	Y6	Z6	X7	Y7	Z7	X8	Y8	Z8	X9	Y9	Z9	X10	Y10	Z10	X11	Y11	Z11	X12	Y12	Z12	X13	Y13	Z13	X14	Y14	Z14	X15	Y15	Z15	X16	Y16	Z16	X17	Y17	Z17	X18	Y18	Z18	X19	Y19	Z19	X20	Y20	Z20	X21	Y21	Z21	X22	Y22	Z22	X23	Y23	Z23	X24	Y24	Z24	X25	Y25	Z25	X26	Y26	Z26	X27	Y27	Z27	X28	Y28	Z28	X29	Y29	Z29	X30	Y30	Z30	X31	Y31	Z31	X32	Y32	Z32	X33	Y33	Z33	X34	Y34	Z34	X35	Y35	Z35	X36	Y36	Z36	X37	Y37	Z37	X38	Y38	Z38	X39	Y39	Z39	X40	Y40	Z40	X41	Y41	Z41	X42	Y42	Z42	X43	Y43	Z43	X44	Y44	Z44	X45	Y45	Z45	X46	Y46	Z46	X47	Y47	Z47	X48	Y48	Z48	X49	Y49	Z49	X50	Y50	Z50	X51	Y51	Z51	X52	Y52	Z52	X53	Y53	Z53	X54	Y54	Z54	X55	Y55	Z55	X56	Y56	Z56	

205	2.04	636.0289306640625	41.32622528076172	-376.94091796875	554.9763793945312	1040.338256835938	-247.0244293212891	516.4066162109375	1037.704711914062	-404.4566650390625	533.8863525390625	1111.385131835938	-337.1171875	771.212890625	1295.0146484375	-369.1596984863281	519.7683715820312	1255.842895507812	-348.093994140625	577.3092041015625	1520.522583007812	-367.9501647949219	733.1827392578125	1422.723876953125	-370.1008605957031	526.8656005859375	1386.58642578125	-281.8585815429688	553.364990234375	1478.739135742188	-465.1023254394531	653.798583984375	1480.08837890625	-543.0047607421875	620.955078125	1357.776489257812	-622.8047485351562	630.3473510742188	1141.952880859375	-657.6359252929688	570.6156616210938	1121.075073242188	-573.0599365234375	766.6400146484375	919.67236328125	-586.8128051757812	703.0227661132812	885.5131225585938	-639.2306518554688	666.7470703125	1031.44970703125	-661.1167602539062	841.497314453125	750.1103515625	-563.5431518554688	759.174560546875	808.9271850585938	-632.70654296875	666.6895751953125	1504.5400390625	-197.7879943847656	654.20166015625	1435.280883789062	-123.8201446533203	602.34521484375	1173.52783203125	-84.54771423339844	594.9920043945312	1140.107543945312	-178.5930938720703	710.0675048828125	904.1737670898438	-102.3132247924805	645.2655639648438	898.29345703125	-37.5389518737793	611.06689453125	1098.462158203125	-64.60785675048828	717.3029174804688	716.0179443359375	-103.1071166992188	734.7169189453125	792.8790283203125	-81.51376342773438	678.7775268554688	795.5341186523438	-32.31570434570312	613.8453369140625	1685.045043945312	-299.9000549316406	793.238525390625	1726.2333984375	-403.9093322753906	784.082275390625	1725.605712890625	-305.8889770507812	618.4910278320312	1688.94189453125	-444.071044921875	582.234130859375	938.9909057617188	-529.4199829101562	695.463134765625	942.5945434570312	-174.4030914306641	772.1731567382812	973.4609375	-269.720947265625	711.227294921875	984.4668579101562	-497.0157775878906	671.8358764648438	493.9844055175781	-502.4594421386719	630.213134765625	631.9672241210938	-529.4276123046875	475.4284362792969	35.14768600463867	-458.05517578125	550.381103515625	267.925537109375	-492.796142578125	696.4017333984375	32.0184211730957	-392.190673828125	600.5440673828125	30.47413444519043	-478.1065673828125	406.6909790039062	50.96845245361328	-405.0908508300781	848.033935546875	540.3458251953125	-210.4562072753906	853.8657836914062	43.23800277709961	-205.97412109375	855.9868774414062	414.7015991210938	-201.1952819824219	1080.559448242188	82.21458435058594	-254.6480407714844	1015.096313476562	75.52808380126953	-282.3828125	1001.724975585938	63.04001998901367	-186.8911590576172	797.7947998046875	34.80583953857422	-249.4640502929688	814.4048461914062	836.2958374023438	-596.8082275390625	758.8523559570312	793.4522094726562	-174.6697082519531	nan	nan	nan	nan	nan	nan	nan	nan	nan	
206	2.05	635.9411010742188	41.31661224365234	-376.9085693359375	548.5972290039062	1041.88671875	-247.5917205810547	509.9159240722656	1039.011596679688	-404.9971313476562	527.4163818359375	1112.689086914062	-337.6649169921875	764.5259399414062	1296.610595703125	-370.0283508300781	513.2153930664062	1257.19873046875	-348.3736267089844	570.4540405273438	1521.930908203125	-368.2839660644531	726.342529296875	1424.232299804688	-370.8812561035156	520.35986328125	1387.968627929688	-282.0442504882812	546.244873046875	1480.114379882812	-465.2945251464844	646.4104614257812	1481.579223632812	-543.5861206054688	612.9108276367188	1359.3134765625	-623.271728515625	621.2485961914062	1143.442138671875	-658.1130981445312	561.93603515625	1122.945678710938	-573.1400146484375	754.7899780273438	918.755859375	-589.0618896484375	690.2691040039062	885.8610229492188	-641.1231689453125	656.1052856445312	1032.394897460938	-662.2018432617188	827.1565551757812	747.9911499023438	-567.0831298828125	745.2199096679688	808.3427734375	-635.3404541015625	660.3383178710938	1506.098266601562	-198.4107818603516	648.1945190429688	1436.78955078125	-124.402961730957	597.362060546875	1174.781005859375	-85.05203247070312	589.4512939453125	1141.5029296875	-179.1040802001953	705.280517578125	905.5792846679688	-103.8324737548828	640.9916381835938	899.5819702148438	-38.59203338623047	606.2852172851562	1099.7275390625	-65.30369567871094	712.5536499023438	717.4095458984375	-104.9444961547852	730.1619262695312	794.2921752929688	-83.33789825439453	674.6163940429688	796.8492431640625	-33.69926834106445	607.4253540039062	1686.831420898438	-300.5932312011719	786.7711791992188	1727.398193359375	-405.0150146484375	777.82373046875	1726.943603515625	-307.0015869140625	611.8421630859375	1690.5302734375	-444.7860412597656	575.531494140625	940.1234130859375	-529.869384765625	689.146240234375	944.3746337890625	-174.9312133789062	765.6763305664062	975.087646484375	-270.3659973144531	704.7047119140625	985.900390625	-497.6294555664062	666.7843627929688	495.5179138183594	-501.90673828125	624.6815795898438	633.1459350585938	-529.1842651367188	475.3385314941406	34.85966491699219	-458.075927734375	547.5647583007812	268.4900207519531	-492.3853149414062	696.318115234375	32.03442001342773	-392.24365234375	600.495361328125	30.51026916503906	-478.0897827148438	406.5718688964844	50.11329650878906	-405.000244140625	842.0765991210938	542.0253295898438	-210.6328125	838.0364379882812	44.11600875854492	-205.0263061523438	848.2897338867188	415.7341918945312	-201.2582397460938	1065.133911132812	79.41780853271484	-254.5497131347656	999.480224609375	73.66696929931641	-282.1012573242188	986.2448120117188	61.47700881958008	-186.4326782226562	781.6821899414062	36.52053451538086	-248.3292388916016	801.2476806640625	834.845458984375	-599.836181640625	752.748779296875	795.2759399414062	-175.1443328857422	nan	nan	nan	nan	nan	nan	nan	nan	nan	
207	2.06	635.8614501953125	41.3387451171875	-376.8830261230469	542.30908203125	1043.474975585938	-248.0877685546875	503.5234069824219	1040.332763671875	-405.4691772460938	521.025390625	1114.0029296875	-338.1500854492188	757.897705078125	1298.238403320312	-370.8360595703125	506.7486572265625	1258.561645507812	-348.5522766113281	563.6171264648438	1523.343994140625	-368.5363159179688	719.5477294921875	1425.780395507812	-371.6060791015625	513.911376953125	1389.350708007812	-282.1465148925781	539.1502075195312	1481.503295898438	-465.3976135253906	639.034912109375	1483.1162109375	-544.0863647460938	604.8895263671875	1360.898193359375	-623.649169921875	612.1353759765625	1144.981201171875	-658.4461669921875	553.311767578125	1124.886962890625	-573.0347290039062	742.8140258789062	917.849609375	-591.2769165039062	677.3300170898438	886.2786865234375	-642.8885498046875	645.3831176757812	1033.39599609375	-663.1527709960938	812.5479736328125	745.8729248046875	-570.6321411132812	731.01123046875	807.8096923828125	-637.8924560546875	654.0327758789062	1507.68017578125	-198.9678192138672	642.2644653320312	1438.320434570312	-124.9159698486328	592.5526123046875	1176.032470703125	-85.52941131591797	584.098876953125	1142.90185546875	-179.5850219726562	700.7639770507812	907.0205078125	-105.3573913574219	637.0161743164062	900.885009765625	-39.64081192016602	601.7077026367188	1100.9931640625	-65.98135375976562	708.0697021484375	718.8197021484375	-106.8352813720703	725.9192504882812	795.7491455078125	-85.17588043212891	670.763916015625	798.1878662109375	-35.10225677490234	601.0260620117188	1688.637817382812	-301.2029418945312	780.315673828125	1728.58642578125	-406.0433959960938	771.5715942382812	1728.30224609375	-308.0239562988281	605.1946411132812	1692.144165039062	-445.4100952148438	568.9810791015625	941.2471923828125	-530.2335815429688	682.8890380859375	946.1808471679688	-175.3697204589844	759.25537109375	976.7498779296875	-270.913330078125	698.2926635742188	987.3329467773438	-498.15625	661.7794189453125	497.0582275390625	-501.2539672851562	619.2511596679688	634.3303833007812	-528.859619140625	475.2608642578125	34.63879013061523	-458.1176147460938	544.7884521484375	269.0846557617188	-491.941650390625	696.2219848632812	32.06618118286133	-392.2983703613281	600.4567260742188	30.55424118041992	-478.0544738769531	406.4513549804688	49.34291076660156	-404.9551696777344	835.8411254882812	543.5811157226562	-210.7442321777344	821.3999633789062	45.03412246704102	-204.0573883056641	840.140869140625	416.6611022949219	-201.2129821777344	1048.939453125	76.69290161132812	-254.0236358642578	983.1661376953125	71.89149475097656	-281.5168151855469	969.892578125	59.97991943359375	-185.7034912109375	764.8584594726562	38.27904510498047	-247.2618865966797	787.8862915039062	833.4185180664062	-602.8576049804688	746.6279296875	797.0617065429688	-175.6198272705078	nan	nan	nan	nan	nan	nan	nan	nan	nan	
208	2.07	635.7863159179688	41.38634872436523	-376.8583068847656	536.089111328125	1045.07421875	-248.5196838378906	497.2237243652344	1041.6455078125	-405.8840942382812	514.7008666992188	1115.302612304688	-338.5800170898438	751.3201904296875	1299.869506835938	-371.5801086425781	500.3626708984375	1259.9130859375	-348.6331481933594	556.798583984375	1524.742553710938	-368.7116394042969	712.79833984375	1427.34619140625	-372.2794799804688	507.5208129882812	1390.71533203125	-282.1672668457031	532.0856323242188	1482.885009765625	-465.4170227050781	631.675537109375	1484.674926757812	-544.5103149414062	596.8959350585938	1362.505615234375	-623.9424438476562	603.0120239257812	1146.546630859375	-658.6485595703125	544.7544555664062	1126.871337890625	-572.7573852539062	730.7283935546875	916.94775390625	-593.4556884765625	664.2267456054688	886.75146484375	-644.5170288085938	634.593994140625	1034.435180664062	-663.974365234375	797.69189453125	743.7547607421875	-574.1653442382812	716.570556640625	807.3201904296875	-640.3438110351562	647.7725219726562	1509.26220703125	-199.4611663818359	636.4080200195312	1439.85107421875	-125.3621978759766	587.8976440429688	1177.2626953125	-85.98419952392578	578.9161987304688	1144.282348632812	-180.0391387939453	696.515869140625	908.4841918945312	-106.8888549804688	633.327880859375	902.18212890625	-40.69407653808594	597.318359375	1102.237548828125	-66.64361572265625	703.891845703125	720.24267578125	-108.7693023681641	721.9935913085938	797.23828125	-87.02897644042969	667.2161254882812	799.5325317382812	-36.53306579589844	594.649169921875	1690.439575195312	-301.7304382324219	773.8700561523438	1729.778564453125	-406.9912719726562	765.3219604492188	1729.657958984375	-308.9534912109375	598.54833984375	1693.763061523438	-445.9453430175781	562.60009765625	942.3469848632812	-530.5164794921875	676.6717529296875	947.9794921875	-175.7180328369141	752.9016723632812	978.4221801757812	-271.3553466796875	691.9937133789062	988.741455078125	-498.5928649902344	656.8124389648438	498.5862731933594	-500.5053100585938	613.9068603515625	635.5042114257812	-528.4591064453125	475.1906433105469	34.47272872924805	-458.1734619140625	542.0545043945312	269.6904602050781	-491.4630126953125	696.1106567382812	32.11296844482422	-392.3524169921875	600.4254150390625	30.60909652709961	-477.9981689453125	406.3226928710938	48.64151763916016	-404.9463195800781	829.3233642578125	544.9825439453125	-210.7934875488281	804.0025024414062	46.01609420776367	-203.0864410400391	831.5325927734375	417.4687805175781	-201.0579071044922	1032.021850585938	74.07553863525391	-253.0088958740234	966.2174682617188	70.22615814208984	-280.5906677246094	952.7047119140625	58.58305740356445	-184.6797790527344	747.382568359375	40.09975051879883	-246.2976837158203	774.3282470703125	831.9925537109375	-605.853515625	740.4646606445312	798.773193359375	-176.0872497558594	nan	nan	nan	nan	nan	nan	nan	nan	nan	
